<svg id="_1" data-name="1" xmlns="http://www.w3.org/2000/svg" viewBox="0 0 515.91 569.79"><title>1</title><path d="M1080.43,201.14c-40.79,202-160,161-160,161C881.7,308.17,753.9,269,753.9,269,697.63,219.75,710.67,83.4,710.67,83.4L647.19,82c0,208.69,61,229.79,61,229.79-124.86,63.31-89.1,340-89.1,340,108.18-2.7,220.39-71.69,220.39-71.69,107.62-63.46,93.82-155.76,93.82-155.76,194.61,21.1,197-220.41,197-220.41ZM687.44,568s3.89-177.55,70-190.51c0,0,60.92,1.29,86.84,54.43C844.26,431.87,878.81,503.46,687.44,568Z" transform="translate(-614.31 -81.99)"/></svg>