<svg id="_14" data-name="14" xmlns="http://www.w3.org/2000/svg" viewBox="0 0 379.35 466.62"><title>14</title><path d="M956.14,382.37,896,362.66c-11.27-3.38-28.5-10.19-36.73-15.94-38.32-26.77-46.13-74.6-47.3-102.23,20.82-10.52,30.91-23,30.91-47.7,0-40.46-38.63-73.25-86.28-73.25s-86.27,32.79-86.27,73.25c0,38.65,35.37,70,80.06,72.72l.54-.21c4.84,51.88,30.21,119.13,105.52,139.21l29.4,5.08c10.47,2.51,21.73,7.94,28,12.5,25.37,18.4,53.63,54.18,74.81,164.06l61-19.45C1023.37,472.7,1006.54,405.82,956.14,382.37Z" transform="translate(-670.29 -123.54)"/></svg>