<svg id="_15" data-name="15" xmlns="http://www.w3.org/2000/svg" viewBox="0 0 410.34 456.61"><title>15</title><path d="M989.68,451.79l-44.56-75,36-18.26,31.42-15.92c7.63-10.92,15.33-21.68,22.05-34.4-14.23-2.11-27.47-2.27-40.79-2.58l-1.16.59c-6.47-.31-12.84-.44-19.23-.59L942,321.54l-22.87,11.59L901.69,303.7,956,276.17l39.6-20.07c10.35-12.3,20.79-24.45,30.23-38.55-7-.3-13.73-.12-20.46.09l.07-.09c-17-.73-32.92.5-49,1.57l-39.6,20.06L875.78,260c-7-11.82-14.19-23.58-20.94-35.57-2.37-4.14-4.09-7-5.41-9.06L923.29,178l44.87-22.73C980.27,142,982.85,129,994.05,114c-4.17,0-7.76.18-11.1.39.1-.14.22-.25.32-.39-18.71.16-34.86-11.3-52.66-9.34L885.74,127.4,796,172.86l-89.74,45.46c-15,7.5-29.82,15.34-45,22.55-12.17,13.09-25.94,39.7-37,55,7.22,0,14.18-.45,21.13-.93-.23.33-.5.6-.74.93,18.86.12,36.59-2,54.33-4.06,14.78-7.94,29.87-15.25,44.78-22.91l53.83-27.27c.27,1.4.53,2.81.81,4.21,8.45,13.48,16.39,27.27,24.54,40.93l-64.49,32.67C745.25,326,732.19,333,718.8,339.3,708.39,351.51,698,363.65,688.66,378a252.17,252.17,0,0,0,26.51,0,412.38,412.38,0,0,0,43-1.41c13-7.06,26.34-13.48,39.5-20.25l51.32-26,17.49,29.43-50.06,25.36c-10.51,5.22-20.85,10.79-31.51,15.73-7.68,10.82-15.39,21.58-22,34.59,14.37,2.4,27.61,2.55,40.87,2.76.35-.19.7-.35,1-.54,6.53.34,12.95.44,19.36.54,10.28-5.67,20.89-10.71,31.32-16.1l36.87-18.68L933.64,473l27,45.45q7.27,6,14.63,12l0,.1c14.41,11.93,33.3,30.57,53.69,30.57-1.85-19.4-8.73-45.45-12.32-63.82ZM846,217.14l.61-.31C846.54,217.3,846.39,217.5,846,217.14Z" transform="translate(-624.3 -104.45)"/></svg>