<svg id="_16" data-name="16" xmlns="http://www.w3.org/2000/svg" viewBox="0 0 521.17 209.15"><title>16</title><path d="M1115.63,324.83c-275.9-211.29-497.12-1-499.31,1.16l-10.05,9.8,9.16,10.64c65.4,76,127.86,91,131.54,91.78,8.21,1.27,35,1.69,66.87,1.69,56.28,0,128.26-1.31,140.93-1.58,99-9,161.06-89.18,163.66-92.59l9-11.85ZM941.78,285.66c-2.26,20.52-9.13,36.12-21.08,45.85-21.23,17.29-51.7,12.38-52.93,12.19-25.44-2.39-44.3-10.82-56.06-25.06-10.72-13-13.28-28.13-13.82-37C838.22,271.35,887.07,268.88,941.78,285.66Zm-.32,112.5c-62.87,1.17-161.18,2.17-173.44.34-.46-.11-43.26-10.79-90.61-61.42a308.41,308.41,0,0,1,91.23-51.29c1.61,13.14,6.39,31.28,19.68,47.56,17,20.78,42.91,32.93,76.08,36a94,94,0,0,0,15.51,1.14c15.51,0,39.86-3.09,60-19.39,17-13.76,27.47-33.93,31.37-59.93,26.9,10.76,54.95,26,83.94,46.91C1038.2,356.12,997,393.09,941.46,398.16Z" transform="translate(-606.27 -230.75)"/></svg>