<svg id="_18" data-name="18" xmlns="http://www.w3.org/2000/svg" viewBox="0 0 500.72 205.97"><title>18</title><path d="M998.13,324.47c4-6.67,15.15-18.91,23-18,3.14.31,14.33,3.94,27.17,38.8l36.75,86.47,42.54-18.46-36.5-85.81q-2.48-6.75-5.12-12.68c-18.65-51-39.35-73.59-59.54-75.54-28.12-2.69-43.63,15.67-62.16,44.34l-41.44,74c-22.61,24.22-40.42-2.9-42.2-4.89l-36.78-49-37.62-42.07s-46-37.59-95.08-35.8c-46.44,1.69-84.28,40.93-84.28,91.25s37.81,91.23,84.28,91.23c44.33,0,80.69-37.28,83.95-84.38l69.94,79.34c11.09,13.29,49.95,36.27,85.68,2.69ZM711.19,362.64c-22.37,0-40.57-20.45-40.57-45.59s18.2-45.59,40.57-45.59,40.56,20.45,40.56,45.59S733.56,362.64,711.19,362.64Z" transform="translate(-626.91 -225.75)"/><path d="M855.49,376.47" transform="translate(-626.91 -225.75)"/></svg>