<svg id="_20" data-name="20" xmlns="http://www.w3.org/2000/svg" viewBox="0 0 343.03 408.16"><title>20</title><path d="M1016.73,267.13C1015,243.42,906.65,155.35,906.65,155.35c-110.08,10.17-196.46,49.12-196.46,49.12l3.39,81.29c-61,79.6-33.87,120.25-33.87,120.25,38.95,18.63,96.53,120.24,96.53,120.24l8.47,37.26h54.2c-6.78-91.45-96.54-167.66-96.54-167.66-20.32-55.89,25.4-71.14,25.4-71.14l84.68,5.08C877.86,338.26,927,438.18,927,438.18l10.16,125.33H999.8C981.17,448.35,1016.73,267.13,1016.73,267.13ZM920.2,326.41s-8.47-67.75-133.8-59.28l-6.77-37.26H901.57s50.81,28.79,57.58,96.54Z" transform="translate(-673.71 -155.35)"/></svg>