<svg id="_5" data-name="5" xmlns="http://www.w3.org/2000/svg" viewBox="0 0 466.5 568.71"><title>5</title><path d="M1095.58,419.6V183.35l-80.52-1.58V335.69L901.4,337.27V280l-6.72,7.5c40.69-14.18,70.06-52.47,70.06-98a104.19,104.19,0,1,0-208.38,0c0,47,23,84.73,65.71,97.74v48.5l-112.48,1.48V183.35H629.07V419.6l193-1.48v96.36L711,605l62,49.06,84.34-89.73,84.34,89.73,61.93-49L901.4,513.81V419.6Zm-235-269.72a39.67,39.67,0,1,1-39.67,39.67A39.66,39.66,0,0,1,860.55,149.88Z" transform="translate(-629.07 -85.35)"/></svg>