<svg id="_9" data-name="9" xmlns="http://www.w3.org/2000/svg" viewBox="0 0 392.34 381.78"><title>9</title><path d="M848.62,169c-108.17,0-196.17,85.64-196.17,190.89s88,190.89,196.17,190.89,196.17-85.64,196.17-190.89S956.79,169,848.62,169Zm30,191.39,77.09-77.09A124.15,124.15,0,0,1,955.32,437ZM935,261.84l-77.45,77.44L772.49,254.2A136.89,136.89,0,0,1,935,261.84Zm-220,98c0-33.19,13.2-63.39,34.67-86.25l86.75,86.75L750.2,446.64C728.45,423.73,715.05,393.32,715.05,359.88Zm58,106.09,84.5-84.49,76.91,76.91A137,137,0,0,1,773.07,466Z" transform="translate(-652.45 -168.99)"/></svg>